<?xml version="1.0" encoding="UTF-8" standalone="no"?>
<!-- Created with Inkscape (http://www.inkscape.org/) -->

<svg
   xmlns:dc="http://purl.org/dc/elements/1.1/"
   xmlns:cc="http://creativecommons.org/ns#"
   xmlns:rdf="http://www.w3.org/1999/02/22-rdf-syntax-ns#"
   xmlns:svg="http://www.w3.org/2000/svg"
   xmlns="http://www.w3.org/2000/svg"
   xmlns:sodipodi="http://sodipodi.sourceforge.net/DTD/sodipodi-0.dtd"
   xmlns:inkscape="http://www.inkscape.org/namespaces/inkscape"
   width="242"
   height="168.51968"
   viewBox="0 0 64.02957 44.587528"
   version="1.1"
   id="svg3735"
   inkscape:version="0.92.0 r15299"
   sodipodi:docname="drawing.svg">
  <defs
     id="defs3729" />
  <sodipodi:namedview
     id="base"
     pagecolor="#ffffff"
     bordercolor="#666666"
     borderopacity="1.0"
     inkscape:pageopacity="0.0"
     inkscape:pageshadow="2"
     inkscape:zoom="2.8"
     inkscape:cx="400"
     inkscape:cy="217.14286"
     inkscape:document-units="mm"
     inkscape:current-layer="layer1"
     showgrid="false"
     inkscape:window-width="3840"
     inkscape:window-height="2004"
     inkscape:window-x="-16"
     inkscape:window-y="-16"
     inkscape:window-maximized="1"
     units="px" />
  <metadata
     id="metadata3732">
    <rdf:RDF>
      <cc:Work
         rdf:about="">
        <dc:format>image/svg+xml</dc:format>
        <dc:type
           rdf:resource="http://purl.org/dc/dcmitype/StillImage" />
        <dc:title></dc:title>
      </cc:Work>
    </rdf:RDF>
  </metadata>
  <g
     inkscape:label="Layer 1"
     inkscape:groupmode="layer"
     id="layer1"
     transform="translate(0,-252.4139)">
    <path
       id="path3699"
       d="m 40.419592,281.73101 c -3.048464,-0.0459 -5.564862,-0.0967 -5.592058,-0.11286 -0.249256,-0.14789 0.129286,-0.77568 0.595899,-0.98824 6.90854,-3.14736 1.673072,-11.10201 -6.092215,-9.25642 -5.177696,1.23062 -6.23271,7.52173 -1.576321,9.40091 1.401146,0.56546 1.112542,0.93471 -0.636873,0.81474 -0.541387,-0.0372 -3.443321,-0.0251 -6.448861,0.0267 -6.128852,0.10584 -13.5700308,0.0183 -14.9886138,-0.17644 -1.621011,-0.22246 -1.791591,-0.26887 -2.273431,-0.61805 -1.786303,-1.29513 -0.884371,-4.21007 1.302764,-4.21007 2.380499,0 3.185561,2.28239 1.076225,3.05123 -1.202745,0.43908 -2.591678,-0.92122 -1.712848,-1.67887 0.446089,-0.38435 1.201171,-0.0812 0.884812,0.35529 -0.259206,0.35761 0,0.6267 0.473407,0.49651 0.543463,-0.14862 0.467174,-1.08251 -0.101404,-1.24149 -1.538175,-0.43003 -2.764525,0.95657 -1.988922,2.24882 0.931642,1.5523 11.2143898,1.58488 12.9224568,0.0407 0.777618,-0.70301 1.134445,-0.72665 1.799461,-0.11921 1.018882,0.93071 7.993583,2.03615 7.993583,1.26691 0,-0.0317 -0.326872,-0.35581 -0.726384,-0.72021 -3.7615,-3.43075 -1.369042,-9.16026 4.186629,-10.02653 1.498582,-0.23367 1.760626,-0.37866 1.823131,-1.00881 0.115185,-1.16229 -0.601121,-2.90801 -1.609871,-3.92337 -0.683071,-0.68759 -0.683643,-0.82269 -0.0069,-1.67039 0.986213,-1.23527 1.539244,-3.40078 1.456154,-5.70197 -0.08743,-2.423 0.539253,-1.9888 0.679615,0.47082 0.17367,3.04277 0.588404,4.48902 1.560275,5.44024 0.73972,0.72407 0.748852,0.97438 0.05667,1.55245 -2.125073,1.77457 -2.173038,4.45916 -0.08548,4.77098 6.001387,0.89631 8.547304,7.03787 4.255246,10.26487 -0.877952,0.6601 -0.595839,0.73474 2.503747,0.6624 2.942464,-0.0686 3.780634,-0.28435 4.829983,-1.24286 0.665013,-0.60743 1.021847,-0.58379 1.799461,0.11921 1.707879,1.54399 11.990694,1.51156 12.922524,-0.0408 0.77554,-1.29223 -0.45087,-2.67887 -1.98898,-2.24881 -0.56859,0.15897 -0.64488,1.09286 -0.10142,1.24148 0.47605,0.13018 0.73261,-0.13891 0.4734,-0.49651 -0.31635,-0.43644 0.43873,-0.73963 0.88482,-0.35528 0.87877,0.75716 -0.51005,2.11795 -1.71386,1.67915 -2.10921,-0.76892 -1.30428,-3.05123 1.07623,-3.05123 2.45081,0 3.10834,3.40162 0.86832,4.49217 -0.94901,0.46203 -8.199911,0.65233 -18.779012,0.49287 z m -8.238687,-16.77283 c 0.280795,-0.41548 0.279033,-0.43444 -0.129605,-1.38423 -0.496698,-1.15461 -0.668156,-1.14811 -1.068233,0.0405 -0.495748,1.47294 0.417824,2.49791 1.197833,1.34372 z m -2.581356,16.39545 c -0.03646,-0.0555 -0.185251,-0.52834 -0.331088,-1.05078 -0.537736,-1.9261 -1.921384,-3.17291 -2.922893,-2.63395 -0.656641,0.35332 -0.920626,-0.30486 -0.597972,-1.49075 0.299742,-1.1015 0.643227,-1.31899 0.827716,-0.52408 0.05038,0.21623 0.522945,0.80773 1.050544,1.3144 1.591494,1.52848 2.653622,3.36677 2.416128,4.18194 -0.08698,0.29863 -0.312457,0.40224 -0.442375,0.20328 z m 0.868573,-0.0673 c -0.08466,-0.0925 -0.198023,-0.73015 -0.252033,-1.41704 -0.0678,-0.86323 -0.247871,-1.63108 -0.583182,-2.48645 -0.891984,-2.27535 -1.34273,-2.74973 -2.487252,-2.61744 -0.777678,0.0899 -0.808274,-0.0988 -0.15773,-0.97225 0.913327,-1.22628 1.885883,-1.58127 1.768299,-0.64553 -0.05726,0.45602 0.06848,0.87115 0.621575,2.05151 1.473664,3.14506 2.222132,7.32385 1.090395,6.08723 z m 0.829544,-0.26904 c -0.0447,-0.24046 -0.10745,-1.95064 -0.139869,-3.80026 -0.06426,-3.66393 -0.182599,-4.25025 -0.988289,-4.89625 -0.544278,-0.43638 -0.235791,-0.58129 1.252282,-0.58832 1.758485,-0.008 2.486752,0.43692 1.368105,0.83619 -0.889852,0.31758 -1.202934,2.28268 -1.024613,6.43076 0.103233,2.40077 -0.17473,3.60037 -0.467616,2.01779 z m 1.263802,0.34752 c -0.221882,-0.19113 -0.09579,-1.20928 0.363633,-2.93715 0.511551,-1.92365 0.699246,-2.49318 1.120601,-3.39991 0.419274,-0.90211 0.46038,-1.11189 0.366335,-1.86855 -0.122615,-0.98631 -0.119347,-0.98789 0.890664,-0.42947 1.520684,0.84075 1.975831,1.86398 0.829175,1.86398 -0.906967,0 -1.743505,0.58554 -1.888529,1.32187 -0.05348,0.27182 -0.228801,0.88767 -0.389436,1.36861 -0.525905,1.57468 -0.771959,2.66609 -0.771959,3.42444 0,0.70818 -0.186755,0.94367 -0.520424,0.65619 z m 0.916598,-0.28026 c 0.433062,-1.78304 1.122489,-3.02008 2.336505,-4.19242 0.448481,-0.43303 0.862714,-0.94974 0.920502,-1.14825 0.184175,-0.63206 0.611883,-0.37762 0.856548,0.50954 0.329391,1.19426 -0.296341,2.46219 -0.840624,1.7034 -0.611631,-0.85276 -2.161517,0.6498 -2.49758,2.42144 -0.142635,0.7519 -0.333542,1.07619 -0.633468,1.07619 -0.170464,0 -0.207973,-0.0978 -0.141878,-0.36994 z m -11.234088,-6.10961 c -0.0359,-0.0986 -0.210236,-0.60895 -0.387677,-1.134 -0.544097,-1.61071 -2.197962,-2.70425 -4.296725,-2.841 -2.145154,-0.13979 -3.588218,1.05608 -2.591492,2.1478 0.531187,0.58183 1.564047,0.45298 1.564047,-0.19511 0,-0.33051 -0.226286,-0.30424 -0.505948,0.0587 -0.2689,0.34888 -0.743062,0.1464 -0.743062,-0.31731 0,-0.7648 1.435201,-1.07499 2.018254,-0.43622 1.201801,1.31635 -1.439732,2.72967 -2.794672,1.4952 -0.563481,-0.51337 -0.699882,-0.87582 -0.564176,-1.49922 0.484486,-2.22498 3.668219,-2.57281 7.117396,-0.77769 0.88576,0.46101 1.371376,0.62415 1.993518,0.66973 1.140935,0.0836 1.10663,0.44168 -0.259706,2.70899 -0.161774,0.26842 -0.471333,0.33605 -0.549757,0.1201 z m 18.127837,0.056 c -0.03646,-0.0555 -0.155914,-0.34304 -0.264867,-0.63899 -0.108947,-0.29596 -0.39926,-0.88445 -0.645056,-1.30777 -0.691322,-1.19053 -0.624919,-1.31539 0.550072,-1.03428 0.809217,0.19357 1.686543,-0.004 3.114118,-0.70081 3.702339,-1.80757 7.997242,0.14111 5.63707,2.55775 -1.226474,1.25589 -3.658721,0.28816 -2.946122,-1.17217 0.422676,-0.86606 1.798324,-0.84685 1.914585,0.0267 0.07245,0.54489 -0.165611,0.69547 -0.659092,0.41686 -0.459118,-0.2592 -0.525017,-0.13483 -0.163958,0.30933 0.526456,0.64761 1.474407,0.19335 1.474407,-0.70658 0,-3.33634 -6.197966,-1.51527 -7.428529,2.18268 -0.06106,0.18275 -0.474411,0.2305 -0.582491,0.0673 z m -15.632592,-3.9205 c -0.0472,-0.0661 0.0239,-0.38394 0.159197,-0.70626 0.947568,-2.2613 -1.866937,-5.49547 -4.783033,-5.49547 -1.231826,0 -2.333734,0.57226 -2.333734,1.21192 0,0.77112 1.225847,1.38354 1.727322,0.86296 0.263681,-0.27373 -0.07371,-0.48567 -0.59407,-0.37315 -0.457733,0.099 -0.499528,-0.41379 -0.05038,-0.6208 1.318501,-0.608 2.135208,0.61278 1.040728,1.55574 -1.69409,1.45918 -3.803616,-0.8225 -2.186508,-2.36475 1.885064,-1.7984 4.959345,-0.89354 7.680623,2.26144 1.211246,1.40408 1.327881,1.49936 2.140051,1.74746 1.003152,0.30634 0.984708,0.50432 -0.08183,0.8778 -0.47441,0.16611 -1.189648,0.49594 -1.589471,0.73297 -0.758546,0.44968 -0.98452,0.51187 -1.128792,0.31073 z m 12.426825,-0.37147 c -0.286896,-0.1948 -1.058975,-0.55545 -1.715869,-0.80146 -1.322589,-0.49539 -1.513623,-0.67346 -0.857174,-0.7991 1.177571,-0.22539 1.483856,-0.37412 1.968342,-0.95576 2.757723,-3.31094 4.719895,-4.29631 7.317244,-3.67484 2.187005,0.5234 2.233332,3.49418 0.05414,3.49418 -1.145912,0 -2.101846,-1.33105 -1.393972,-1.94102 0.4819,-0.41524 1.628191,-0.17165 1.628191,0.34602 0,0.22235 -0.07145,0.26343 -0.352561,0.20265 -0.52036,-0.11252 -0.857743,0.0994 -0.594068,0.37314 0.50142,0.52058 1.727323,-0.0918 1.727323,-0.86295 0,-0.63438 -1.100828,-1.21078 -2.31491,-1.21078 -2.876817,0 -5.704161,3.15625 -4.811982,5.37191 0.3613,0.89734 0.178887,1.0252 -0.65501,0.45904 z"
       inkscape:connector-curvature="0"
       style="stroke-width:0.15458713" />
    <text
       xml:space="preserve"
       style="font-style:normal;font-variant:normal;font-weight:normal;font-stretch:normal;font-size:8.33085918px;line-height:5.20678759px;font-family:'Sitka Small';-inkscape-font-specification:'Sitka Small';letter-spacing:0px;word-spacing:0px;fill:#000000;fill-opacity:1;stroke:none;stroke-width:0.20827147"
       x="6.2047062"
       y="181.90208"
       id="text3716"
       transform="scale(0.62023381,1.6122952)"><tspan
         sodipodi:role="line"
         id="tspan3714"
         x="6.2047062"
         y="181.90208"
         style="stroke-width:0.20827147">The Fancy Movie Club</tspan></text>
  </g>
</svg>
