<?xml version="1.0" encoding="UTF-8" standalone="no"?>
<!-- Created with Inkscape (http://www.inkscape.org/) -->

<svg
   xmlns:dc="http://purl.org/dc/elements/1.1/"
   xmlns:cc="http://creativecommons.org/ns#"
   xmlns:rdf="http://www.w3.org/1999/02/22-rdf-syntax-ns#"
   xmlns:svg="http://www.w3.org/2000/svg"
   xmlns="http://www.w3.org/2000/svg"
   xmlns:sodipodi="http://sodipodi.sourceforge.net/DTD/sodipodi-0.dtd"
   xmlns:inkscape="http://www.inkscape.org/namespaces/inkscape"
   width="460"
   height="316.51968"
   viewBox="0 0 121.7088 83.745886"
   version="1.1"
   id="svg3735"
   inkscape:version="0.92.0 r15299"
   sodipodi:docname="drawing.svg">
  <defs
     id="defs3729" />
  <sodipodi:namedview
     id="base"
     pagecolor="#ffffff"
     bordercolor="#666666"
     borderopacity="1.0"
     inkscape:pageopacity="0.0"
     inkscape:pageshadow="2"
     inkscape:zoom="2.8"
     inkscape:cx="400"
     inkscape:cy="217.14286"
     inkscape:document-units="mm"
     inkscape:current-layer="layer1"
     showgrid="false"
     inkscape:window-width="3840"
     inkscape:window-height="2004"
     inkscape:window-x="-16"
     inkscape:window-y="-16"
     inkscape:window-maximized="1"
     units="px" />
  <metadata
     id="metadata3732">
    <rdf:RDF>
      <cc:Work
         rdf:about="">
        <dc:format>image/svg+xml</dc:format>
        <dc:type
           rdf:resource="http://purl.org/dc/dcmitype/StillImage" />
        <dc:title></dc:title>
      </cc:Work>
    </rdf:RDF>
  </metadata>
  <g
     inkscape:label="Layer 1"
     inkscape:groupmode="layer"
     id="layer1"
     transform="translate(0,-213.2542)">
    <path
       id="path3699"
       d="m 79.21936,270.04048 c -6.270449,-0.1017 -11.446479,-0.21432 -11.502421,-0.25006 -0.512698,-0.32766 0.265932,-1.71865 1.225717,-2.18961 14.21032,-6.97352 3.441376,-24.5984 -12.531202,-20.50918 -10.650111,2.72665 -12.82019,16.66568 -3.242367,20.82933 2.882045,1.25287 2.28841,2.07101 -1.309997,1.80518 -1.11359,-0.0824 -7.08264,-0.0557 -13.264797,0.0593 -12.606561,0.23452 -27.912476,0.0406 -30.8303885,-0.39093 -3.334291,-0.49289 -3.685161,-0.59572 -4.676268,-1.3694 -3.67428203,-2.86957 -1.81908,-9.32814 2.679683,-9.32814 4.8964995,0 6.5524465,5.05704 2.21371,6.76053 -2.473951,0.97286 -5.330877,-2.04112 -3.523193,-3.71982 0.917569,-0.8516 2.470714,-0.17982 1.819989,0.7872 -0.533167,0.79236 0,1.38856 0.97376,1.10011 1.11786,-0.32928 0.96094,-2.39848 -0.208581,-2.75072 -3.163904,-0.95282 -5.686409,2.11944 -4.091054,4.98264 1.916314,3.43939 23.0671085,3.51156 26.5804675,0.0903 1.599498,-1.55763 2.333464,-1.61001 3.701348,-0.26413 2.095761,2.06215 16.442168,4.51145 16.442168,2.80706 0,-0.0704 -0.672351,-0.78836 -1.494115,-1.59575 -7.737107,-7.60141 -2.816011,-20.29613 8.611563,-22.21548 3.082466,-0.51774 3.621469,-0.839 3.750036,-2.2352 0.236927,-2.57526 -1.236459,-6.4432 -3.311375,-8.69291 -1.405025,-1.52347 -1.4062,-1.8228 -0.01412,-3.70102 2.028563,-2.73696 3.166103,-7.53501 2.995192,-12.63369 -0.179833,-5.36859 1.109202,-4.40653 1.397916,1.04318 0.357226,6.74178 1.2103,9.9462 3.209361,12.05378 1.521546,1.60431 1.540329,2.15889 0.116561,3.43972 -4.371106,3.93187 -4.469765,9.88004 -0.175835,10.57093 12.344377,1.98592 17.581128,15.59359 8.752704,22.74357 -1.805878,1.46255 -1.225593,1.62793 5.150009,1.46765 6.052415,-0.15208 7.776465,-0.63001 9.934891,-2.75375 1.36788,-1.34587 2.10186,-1.2935 3.70135,0.26412 3.51297,3.42096 24.663898,3.34911 26.580608,-0.0905 1.59522,-2.86316 -0.92741,-5.93548 -4.09118,-4.98262 -1.16954,0.35222 -1.32646,2.42142 -0.2086,2.7507 0.97919,0.28844 1.50692,-0.30776 0.97375,-1.10009 -0.65071,-0.96702 0.90242,-1.63879 1.82,-0.78719 1.80755,1.67762 -1.04913,4.69267 -3.52527,3.72044 -4.33848,-1.70368 -2.6828,-6.76051 2.21371,-6.76051 5.04112,0 6.3936,7.53688 1.78606,9.95318 -1.95204,1.0237 -16.86656,1.44534 -38.626935,1.09203 z M 62.273034,232.87741 c 0.577574,-0.92056 0.573949,-0.96257 -0.266587,-3.06699 -1.021668,-2.55825 -1.374344,-2.54383 -2.197271,0.0897 -1.019715,3.26357 0.859432,5.53456 2.463847,2.97725 z m -5.309645,36.32693 c -0.075,-0.12288 -0.381047,-1.17064 -0.681022,-2.32818 -1.10608,-4.26761 -3.952135,-7.03013 -6.012158,-5.83597 -1.350659,0.78284 -1.893656,-0.67548 -1.229982,-3.30301 0.616546,-2.44056 1.323067,-2.92244 1.702547,-1.1612 0.103629,0.47911 1.075657,1.78967 2.160886,2.91228 3.273577,3.38662 5.458288,7.45966 4.969783,9.26582 -0.178918,0.66165 -0.642699,0.89123 -0.90993,0.45038 z m 1.786586,-0.14903 c -0.174129,-0.20492 -0.407318,-1.61777 -0.518412,-3.13969 -0.139455,-1.91263 -0.509852,-3.61395 -1.199559,-5.50915 -1.83474,-5.04143 -2.76189,-6.0925 -5.11608,-5.79938 -1.599623,0.19916 -1.662556,-0.21888 -0.324439,-2.1542 1.878642,-2.71702 3.879112,-3.50358 3.637251,-1.43029 -0.117786,1.0104 0.140869,1.9302 1.27853,4.54547 3.031211,6.96844 4.57075,16.22726 2.242856,13.4873 z m 1.706305,-0.5961 c -0.09194,-0.53279 -0.221014,-4.32198 -0.287698,-8.42013 -0.132181,-8.11806 -0.375592,-9.41715 -2.032832,-10.84848 -1.119536,-0.96688 -0.485003,-1.28794 2.575845,-1.30352 3.617064,-0.0184 5.11505,0.96806 2.814083,1.85272 -1.830354,0.70365 -2.47434,5.05767 -2.107547,14.24845 0.21234,5.31932 -0.359406,7.97724 -0.961851,4.47075 z m 2.599541,0.76998 c -0.456394,-0.42347 -0.197035,-2.67936 0.747965,-6.50775 1.05222,-4.26218 1.438293,-5.52407 2.304988,-7.53307 0.862413,-1.99878 0.946965,-2.46359 0.753522,-4.1401 -0.25221,-2.18534 -0.245489,-2.18884 1.832025,-0.95157 3.127927,1.86284 4.064128,4.12996 1.705547,4.12996 -1.865559,0 -3.586252,1.29737 -3.884555,2.92883 -0.11001,0.60226 -0.470625,1.9668 -0.801039,3.03239 -1.081744,3.48897 -1.587857,5.90719 -1.587857,7.58744 0,1.56908 -0.384142,2.09086 -1.070472,1.45391 z m 1.885369,-0.62095 c 0.890775,-3.95063 2.308873,-6.69151 4.806006,-9.28902 0.92249,-0.95947 1.774535,-2.10432 1.8934,-2.54415 0.378833,-1.40043 1.258596,-0.83668 1.761851,1.12896 0.677532,2.64609 -0.609549,5.45541 -1.729097,3.77419 -1.258076,-1.88945 -4.446068,1.43972 -5.137323,5.3651 -0.293389,1.66597 -0.68607,2.38449 -1.302995,2.38449 -0.350631,0 -0.427784,-0.21668 -0.291831,-0.81967 z m -23.107628,-13.5369 c -0.07384,-0.21857 -0.432438,-1.34923 -0.79742,-2.51256 -1.119165,-3.5688 -4.521034,-5.99174 -8.838022,-6.29474 -4.412412,-0.30971 -7.38068,2.33994 -5.330495,4.75883 1.092611,1.28914 3.217121,1.00365 3.217121,-0.4323 0,-0.73229 -0.465451,-0.67409 -1.040694,0.13007 -0.553106,0.773 -1.52842,0.32437 -1.52842,-0.70305 0,-1.69455 2.952094,-2.38183 4.151388,-0.96652 2.472011,2.91659 -2.961414,6.04804 -5.748419,3.31285 -1.159035,-1.13744 -1.439601,-1.94053 -1.160464,-3.32176 0.996548,-4.92984 7.545234,-5.7005 14.639918,-1.72312 1.821938,1.02145 2.820813,1.38292 4.10051,1.48391 2.346812,0.18531 2.27625,0.97862 -0.534196,6.00224 -0.332756,0.59473 -0.969495,0.74457 -1.130807,0.26608 z m 37.287523,0.12414 c -0.075,-0.12288 -0.3207,-0.76004 -0.544809,-1.41578 -0.224096,-0.65575 -0.821246,-1.95966 -1.326829,-2.89759 -1.421995,-2.63782 -1.285409,-2.91447 1.131455,-2.29163 1.664494,0.4289 3.469084,-0.008 6.405494,-1.55275 7.615416,-4.00499 16.449694,0.31264 11.595006,5.66713 -2.52276,2.78264 -7.5257,0.63846 -6.05994,-2.59714 0.86941,-1.91892 3.69901,-1.87634 3.93815,0.0591 0.14903,1.20731 -0.34065,1.54093 -1.3557,0.92364 -0.94437,-0.57431 -1.07992,-0.29875 -0.33725,0.68537 1.08288,1.43489 3.03274,0.42838 3.03274,-1.56556 0,-7.39222 -12.748726,-3.35733 -15.279896,4.8361 -0.12559,0.40491 -0.975826,0.51072 -1.198139,0.14902 z m -32.155,-8.68652 c -0.09709,-0.14638 0.04915,-0.85068 0.327455,-1.56485 1.949071,-5.01029 -3.840141,-12.17615 -9.838319,-12.17615 -2.533768,0 -4.800307,1.26795 -4.800307,2.68522 0,1.70853 2.521471,3.06547 3.552965,1.91203 0.54237,-0.60649 -0.151615,-1.07609 -1.221955,-0.82677 -0.94152,0.21932 -1.02749,-0.91683 -0.103629,-1.3755 2.712051,-1.34712 4.391954,1.35772 2.140694,3.447 -3.484608,3.23306 -7.823735,-1.82238 -4.497472,-5.23951 3.877427,-3.98465 10.200979,-1.97977 15.798431,5.01062 2.491437,3.11098 2.731347,3.32208 4.401917,3.87179 2.063404,0.67877 2.025466,1.1174 -0.168321,1.94492 -0.975823,0.36805 -2.447012,1.09885 -3.269415,1.62402 -1.560269,0.99635 -2.02508,1.13414 -2.321836,0.68848 z m 25.560993,-0.82307 c -0.590122,-0.4316 -2.178228,-1.23068 -3.529406,-1.77575 -2.720461,-1.09764 -3.113402,-1.49218 -1.763139,-1.77056 2.42217,-0.4994 3.052174,-0.82892 4.048723,-2.11764 5.672418,-7.33597 9.70845,-9.51921 15.05099,-8.14225 4.498496,1.15969 4.593786,7.74197 0.11136,7.74197 -2.35705,0 -4.32333,-2.94918 -2.86729,-4.30068 0.99123,-0.92002 3.34906,-0.38031 3.34906,0.76667 0,0.49266 -0.14697,0.58368 -0.72519,0.44901 -1.07034,-0.24932 -1.76431,0.22026 -1.22195,0.82675 1.03138,1.15345 3.552966,-0.20345 3.552966,-1.912 0,-1.40558 -2.264316,-2.68271 -4.761586,-2.68271 -5.917386,0 -11.733008,6.99323 -9.897866,11.9024 0.743165,1.9882 0.367957,2.27149 -1.347304,1.01708 z"
       inkscape:connector-curvature="0"
       style="stroke-width:0.33001584" />
    <text
       xml:space="preserve"
       style="font-style:normal;font-variant:normal;font-weight:normal;font-stretch:normal;font-size:15.65578651px;line-height:9.78486729px;font-family:'Sitka Small';-inkscape-font-specification:'Sitka Small';letter-spacing:0px;word-spacing:0px;fill:#000000;fill-opacity:1;stroke:none;stroke-width:0.39139464"
       x="17.062721"
       y="173.74101"
       id="text3716"
       transform="scale(0.59870495,1.6702718)"><tspan
         sodipodi:role="line"
         id="tspan3714"
         x="17.062721"
         y="173.74101"
         style="stroke-width:0.39139464">The Fancy Movie Club</tspan></text>
  </g>
</svg>
