<?xml version="1.0" encoding="UTF-8" standalone="no"?>
<!-- Created with Inkscape (http://www.inkscape.org/) -->

<svg
   xmlns:dc="http://purl.org/dc/elements/1.1/"
   xmlns:cc="http://creativecommons.org/ns#"
   xmlns:rdf="http://www.w3.org/1999/02/22-rdf-syntax-ns#"
   xmlns:svg="http://www.w3.org/2000/svg"
   xmlns="http://www.w3.org/2000/svg"
   xmlns:sodipodi="http://sodipodi.sourceforge.net/DTD/sodipodi-0.dtd"
   xmlns:inkscape="http://www.inkscape.org/namespaces/inkscape"
   width="9.9999997e-006mm"
   height="9.9999997e-006mm"
   viewBox="0 0 6.2203463e-006 6.2203463e-006"
   version="1.1"
   id="svg3697"
   inkscape:version="0.92.0 r15299"
   sodipodi:docname="testLogo.svg">
  <defs
     id="defs3691" />
  <sodipodi:namedview
     id="base"
     pagecolor="#ffffff"
     bordercolor="#666666"
     borderopacity="1.0"
     inkscape:pageopacity="0.0"
     inkscape:pageshadow="2"
     inkscape:zoom="1.4"
     inkscape:cx="552.08123"
     inkscape:cy="396.97921"
     inkscape:document-units="px"
     inkscape:current-layer="layer1"
     showgrid="false"
     inkscape:window-width="3840"
     inkscape:window-height="2004"
     inkscape:window-x="-16"
     inkscape:window-y="-16"
     inkscape:window-maximized="1"
     width="100mm"
     units="mm"
     scale-x="0.16458"
     showguides="true" />
  <metadata
     id="metadata3694">
    <rdf:RDF>
      <cc:Work
         rdf:about="">
        <dc:format>image/svg+xml</dc:format>
        <dc:type
           rdf:resource="http://purl.org/dc/dcmitype/StillImage" />
        <dc:title></dc:title>
      </cc:Work>
    </rdf:RDF>
  </metadata>
  <g
     inkscape:label="Layer 1"
     inkscape:groupmode="layer"
     id="layer1"
     transform="translate(0,-296.98266)">
    <path
       id="path3699"
       d="m 43.004348,291.63151 c -3.453349,-0.0499 -6.303968,-0.10513 -6.334775,-0.12266 -0.28236,-0.16073 0.14646,-0.84305 0.675046,-1.07407 7.826109,-3.42071 1.89528,-12.06621 -6.901365,-10.06033 -5.865379,1.3375 -7.060516,8.17499 -1.78568,10.21738 1.58724,0.61456 1.260306,1.01589 -0.72146,0.88549 -0.613293,-0.0404 -3.900653,-0.0273 -7.305379,0.0291 -6.942865,0.11504 -15.3723573,0.0199 -16.979351,-0.19176 -1.8363086,-0.24178 -2.0295452,-0.29222 -2.5753818,-0.67173 -2.02355289,-1.40761 -1.0018298,-4.57572 1.4757934,-4.57572 2.6966701,0 3.6086569,2.48062 1.2191664,3.31623 -1.3624897,0.47722 -2.93589641,-1.00123 -1.9403433,-1.82468 0.5053369,-0.41773 1.3607068,-0.0882 1.0023302,0.38615 -0.2936333,0.38867 0,0.68113 0.5362828,0.53963 0.6156442,-0.16152 0.5292229,-1.17652 -0.1148729,-1.3493 -1.74247,-0.46739 -3.13169975,1.03964 -2.2530832,2.44412 1.0553801,1.68712 12.7038474,1.72252 14.6387744,0.0443 0.880899,-0.76406 1.285119,-0.78976 2.038459,-0.12956 1.154207,1.01154 9.055265,2.21299 9.055265,1.37694 0,-0.0345 -0.370286,-0.38671 -0.82286,-0.78276 -4.261089,-3.72871 -1.550873,-9.95583 4.742686,-10.89733 1.697619,-0.25396 1.994466,-0.41155 2.065273,-1.09643 0.13048,-1.26323 -0.68096,-3.16057 -1.823693,-4.26411 -0.773793,-0.74731 -0.77444,-0.89414 -0.0078,-1.81546 1.117199,-1.34256 1.743686,-3.69614 1.649559,-6.19718 -0.09904,-2.63345 0.610874,-2.16153 0.76988,0.51171 0.196738,3.30703 0.666554,4.87889 1.767501,5.91272 0.837973,0.78696 0.848313,1.05899 0.0642,1.68728 -2.407321,1.92869 -2.461654,4.84644 -0.09684,5.18534 6.798469,0.97415 9.682528,7.6491 4.820412,11.15637 -0.99456,0.71742 -0.674973,0.79854 2.836283,0.71992 3.333273,-0.0746 4.282766,-0.30904 5.471486,-1.35079 0.753333,-0.66019 1.157566,-0.6345 2.038459,0.12956 1.934713,1.67807 13.583254,1.64283 14.638847,-0.0444 0.878547,-1.40446 -0.510753,-2.91152 -2.253152,-2.44412 -0.6441,0.17278 -0.73052,1.18778 -0.11488,1.3493 0.539273,0.14149 0.829913,-0.15097 0.536279,-0.53963 -0.358373,-0.47435 0.496994,-0.80387 1.002334,-0.38614 0.995479,0.82292 -0.577787,2.30189 -1.941487,1.82498 -2.389346,-0.8357 -1.477506,-3.31622 1.219167,-3.31622 2.776319,0 3.521172,3.69706 0.983646,4.88232 -1.07506,0.50216 -9.288995,0.70898 -21.273172,0.53567 z M 33.67143,273.40197 c 0.31809,-0.45156 0.31609,-0.47217 -0.14682,-1.50445 -0.562664,-1.25489 -0.756897,-1.24782 -1.210111,0.044 -0.561593,1.60088 0.47332,2.71486 1.356924,1.46043 z m -2.924204,17.81939 c -0.04133,-0.0603 -0.209853,-0.57423 -0.375065,-1.14204 -0.609154,-2.09338 -2.176574,-3.44848 -3.3111,-2.86271 -0.743853,0.38401 -1.0429,-0.33134 -0.677393,-1.62022 0.339553,-1.19716 0.728659,-1.43354 0.937653,-0.5696 0.05707,0.23502 0.5924,0.87788 1.190073,1.42856 1.802873,1.66123 3.006066,3.65917 2.737032,4.54514 -0.09854,0.32456 -0.35396,0.43718 -0.501133,0.22093 z m 0.983934,-0.0731 c -0.0959,-0.10052 -0.224327,-0.79356 -0.285507,-1.54011 -0.0768,-0.9382 -0.280793,-1.77274 -0.66064,-2.70239 -1.010453,-2.47297 -1.521066,-2.98855 -2.817599,-2.84477 -0.880967,0.0977 -0.915627,-0.10736 -0.17868,-1.05669 1.034633,-1.33278 2.13636,-1.71861 2.00316,-0.7016 -0.06487,0.49563 0.07758,0.94682 0.704132,2.22968 1.669387,3.41822 2.517267,7.95993 1.235214,6.61591 z m 0.939719,-0.29241 c -0.0506,-0.26135 -0.12172,-2.12005 -0.15844,-4.13031 -0.0728,-3.98214 -0.206853,-4.61938 -1.119553,-5.32149 -0.616566,-0.47428 -0.267106,-0.63177 1.418607,-0.63941 1.99204,-0.009 2.817033,0.47486 1.549807,0.90881 -1.008033,0.34516 -1.362701,2.48093 -1.160694,6.98927 0.11694,2.60928 -0.19794,3.91306 -0.529727,2.19303 z m 1.431661,0.3777 c -0.251357,-0.20772 -0.10852,-1.3143 0.411927,-3.19224 0.579493,-2.09072 0.792119,-2.70971 1.269433,-3.69518 0.474966,-0.98046 0.521526,-1.20846 0.414993,-2.03084 -0.1389,-1.07197 -0.1352,-1.07369 1.00896,-0.46677 1.722653,0.91378 2.238253,2.02586 0.9393,2.02586 -1.027427,0 -1.975067,0.6364 -2.139353,1.43668 -0.0606,0.29542 -0.259194,0.96477 -0.44116,1.48747 -0.595753,1.71144 -0.874487,2.89764 -0.874487,3.72186 0,0.76967 -0.21156,1.02562 -0.589546,0.71318 z m 1.038333,-0.30459 c 0.49058,-1.9379 1.27158,-3.28238 2.646833,-4.55653 0.508047,-0.47065 0.9773,-1.03223 1.04276,-1.24798 0.20864,-0.68695 0.693153,-0.41041 0.970313,0.55379 0.37314,1.29798 -0.3357,2.67603 -0.952273,1.85134 -0.692867,-0.92682 -2.4486,0.70623 -2.8293,2.63174 -0.16158,0.8172 -0.37784,1.16966 -0.717606,1.16966 -0.1931,0 -0.235593,-0.10629 -0.16072,-0.40207 z m -12.726161,-6.64024 c -0.04067,-0.10721 -0.23816,-0.66183 -0.439167,-1.23248 -0.616363,-1.7506 -2.489889,-2.93912 -4.867402,-3.08775 -2.430066,-0.15192 -4.064793,1.14781 -2.935686,2.33434 0.601739,0.63236 1.771779,0.49232 1.771779,-0.21205 0,-0.35921 -0.25634,-0.33066 -0.573146,0.0638 -0.304614,0.37918 -0.841753,0.15911 -0.841753,-0.34487 0,-0.83122 1.625819,-1.16835 2.286312,-0.4741 1.36142,1.43067 -1.630953,2.96673 -3.165852,1.62505 -0.63832,-0.55795 -0.792837,-0.95189 -0.639107,-1.62942 0.548833,-2.41823 4.155419,-2.79626 8.062705,-0.84524 1.003403,0.50105 1.553517,0.67836 2.25829,0.7279 1.29247,0.0909 1.25361,0.48004 -0.2942,2.94427 -0.18326,0.29173 -0.533933,0.36523 -0.622773,0.13052 z m 20.535516,0.0609 c -0.04133,-0.0603 -0.17662,-0.37282 -0.300046,-0.69448 -0.12342,-0.32166 -0.452287,-0.96127 -0.730733,-1.42135 -0.783137,-1.29393 -0.707914,-1.42963 0.623133,-1.12411 0.916693,0.21039 1.910539,-0.004 3.527726,-0.76167 4.194072,-1.96456 9.059405,0.15336 6.385765,2.77989 -1.389373,1.36496 -4.144659,0.31318 -3.337419,-1.27397 0.478813,-0.94129 2.037173,-0.9204 2.168873,0.029 0.08208,0.59222 -0.1876,0.75587 -0.746627,0.45307 -0.5201,-0.28171 -0.594753,-0.14654 -0.18574,0.3362 0.596387,0.70385 1.67024,0.21013 1.67024,-0.76795 0,-3.6261 -7.021159,-1.64687 -8.415165,2.37224 -0.06916,0.19862 -0.53742,0.25052 -0.659853,0.0731 z m -17.70886,-4.26099 c -0.05347,-0.0718 0.02707,-0.41728 0.18034,-0.7676 1.07342,-2.45769 -2.114897,-5.97275 -5.418299,-5.97275 -1.395433,0 -2.643693,0.62197 -2.643693,1.31718 0,0.83808 1.38866,1.5037 1.95674,0.9379 0.2987,-0.2975 -0.0835,-0.52785 -0.672974,-0.40555 -0.518526,0.10758 -0.565873,-0.44973 -0.05707,-0.67472 1.493619,-0.6608 2.418799,0.666 1.178953,1.69085 -1.919093,1.58591 -4.308799,-0.89393 -2.476913,-2.57013 2.135433,-1.95458 5.618029,-0.97113 8.700738,2.45785 1.37212,1.52603 1.504247,1.62958 2.424287,1.89922 1.136386,0.33296 1.115493,0.54812 -0.0927,0.95404 -0.53742,0.18054 -1.347654,0.53902 -1.80058,0.79663 -0.859293,0.48874 -1.11528,0.55633 -1.278713,0.33772 z m 14.077318,-0.40374 c -0.325007,-0.21171 -1.199627,-0.60368 -1.943767,-0.87105 -1.498253,-0.53843 -1.714659,-0.73196 -0.971019,-0.86851 1.333966,-0.24497 1.680933,-0.40661 2.229766,-1.03877 3.123996,-3.5985 5.346775,-4.66944 8.289088,-3.994 2.47748,0.56886 2.52996,3.79766 0.06133,3.79766 -1.2981,0 -2.381,-1.44666 -1.579113,-2.10961 0.545906,-0.4513 1.844439,-0.18655 1.844439,0.37607 0,0.24167 -0.08094,0.28632 -0.39938,0.22026 -0.589473,-0.1223 -0.971666,0.10804 -0.672973,0.40554 0.568013,0.5658 1.956746,-0.0998 1.956746,-0.93789 0,-0.68948 -1.247046,-1.31595 -2.622372,-1.31595 -3.258907,0 -6.461769,3.43038 -5.451096,5.83847 0.409286,0.97527 0.202647,1.11423 -0.742,0.49891 z"
       inkscape:connector-curvature="0"
       style="stroke-width:0.17152914" />
    <text
       xml:space="preserve"
       style="font-style:normal;font-variant:normal;font-weight:normal;font-stretch:normal;font-size:4.020648px;line-height:2.51290512px;font-family:'Sitka Small';-inkscape-font-specification:'Sitka Small';letter-spacing:0px;word-spacing:0px;fill:#000000;fill-opacity:1;stroke:none;stroke-width:0.1005162"
       x="6.7848444"
       y="323.26025"
       id="text3716"
       transform="scale(1.0915649,0.91611594)"><tspan
         sodipodi:role="line"
         id="tspan3714"
         x="6.7848444"
         y="323.26025"
         style="stroke-width:0.1005162">The Fancy Movie Club</tspan></text>
  </g>
</svg>
