<?xml version="1.0" encoding="UTF-8" standalone="no"?>
<!-- Created with Inkscape (http://www.inkscape.org/) -->

<svg
   xmlns:dc="http://purl.org/dc/elements/1.1/"
   xmlns:cc="http://creativecommons.org/ns#"
   xmlns:rdf="http://www.w3.org/1999/02/22-rdf-syntax-ns#"
   xmlns:svg="http://www.w3.org/2000/svg"
   xmlns="http://www.w3.org/2000/svg"
   xmlns:sodipodi="http://sodipodi.sourceforge.net/DTD/sodipodi-0.dtd"
   xmlns:inkscape="http://www.inkscape.org/namespaces/inkscape"
   width="210mm"
   height="297mm"
   viewBox="0 0 210 297"
   version="1.1"
   id="svg3697"
   inkscape:version="0.92.0 r15299"
   sodipodi:docname="testLogo.svg">
  <defs
     id="defs3691" />
  <sodipodi:namedview
     id="base"
     pagecolor="#ffffff"
     bordercolor="#666666"
     borderopacity="1.0"
     inkscape:pageopacity="0.0"
     inkscape:pageshadow="2"
     inkscape:zoom="1.979899"
     inkscape:cx="310.37729"
     inkscape:cy="712.60338"
     inkscape:document-units="mm"
     inkscape:current-layer="layer1"
     showgrid="false"
     inkscape:window-width="3840"
     inkscape:window-height="2004"
     inkscape:window-x="-16"
     inkscape:window-y="-16"
     inkscape:window-maximized="1" />
  <metadata
     id="metadata3694">
    <rdf:RDF>
      <cc:Work
         rdf:about="">
        <dc:format>image/svg+xml</dc:format>
        <dc:type
           rdf:resource="http://purl.org/dc/dcmitype/StillImage" />
        <dc:title></dc:title>
      </cc:Work>
    </rdf:RDF>
  </metadata>
  <g
     inkscape:label="Layer 1"
     inkscape:groupmode="layer"
     id="layer1">
    <path
       id="path3699"
       d="m 118.46966,168.38431 c -4.8431,-0.0847 -8.8409,-0.17837 -8.8841,-0.2081 -0.396,-0.2727 0.2054,-1.43027 0.9467,-1.82219 10.9756,-5.80333 2.658,-20.47067 -9.6787,-17.06763 -8.225798,2.26911 -9.901898,13.8691 -2.504298,17.33406 2.225998,1.04261 1.767498,1.72348 -1.0118,1.50227 -0.8601,-0.0685 -5.4704,-0.0462 -10.2453,0.0495 -9.7369,0.19516 -21.5587,0.0337 -23.8124,-0.32534 -2.5753,-0.41018 -2.8463,-0.49574 -3.6118,-1.1396 -2.8379,-2.38804 -1.405,-7.76282 2.0697,-7.76282 3.7819,0 5.0609,4.20843 1.7098,5.62606 -1.9108,0.80962 -4.1174,-1.69862 -2.7212,-3.09561 0.7087,-0.7087 1.9083,-0.14966 1.4057,0.65511 -0.4118,0.65939 0,1.15556 0.7521,0.9155 0.8634,-0.27403 0.7422,-1.996 -0.1611,-2.28913 -2.4437,-0.79295 -4.392,1.76378 -3.1598,4.14652 1.4801,2.86224 17.8163,2.9223 20.5299,0.0752 1.2354,-1.29624 1.8023,-1.33984 2.8588,-0.2198 1.6187,1.7161 12.6994,3.75441 12.6994,2.33602 0,-0.0585 -0.5193,-0.65606 -1.154,-1.32797 -5.9759,-6.32587 -2.175,-16.89035 6.651298,-18.48763 2.3808,-0.43084 2.7971,-0.6982 2.8964,-1.86011 0.183,-2.14311 -0.955,-5.36201 -2.5576,-7.23419 -1.0852,-1.26782 -1.0861,-1.51692 -0.011,-3.07999 1.5668,-2.27767 2.4454,-6.27058 2.3134,-10.51367 -0.1389,-4.46772 0.8567,-3.6671 1.0797,0.86814 0.2759,5.61045 0.9348,8.27717 2.4788,10.03108 1.1752,1.3351 1.1897,1.79661 0.09,2.86251 -3.3761,3.27208 -3.4523,8.22213 -0.1358,8.79707 9.5344,1.65268 13.5791,12.97692 6.7603,18.9271 -1.3948,1.21712 -0.9466,1.35473 3.9777,1.22136 4.6747,-0.12664 6.0063,-0.5243 7.6734,-2.29165 1.0565,-1.12003 1.6234,-1.07645 2.8588,0.2198 2.7133,2.8469 19.0496,2.7871 20.53,-0.0753 1.2321,-2.38271 -0.7163,-4.93947 -3.1599,-4.14652 -0.9033,0.29313 -1.0245,2.01511 -0.1611,2.28913 0.7563,0.24004 1.1639,-0.25613 0.7521,-0.9155 -0.5026,-0.80475 0.697,-1.36379 1.4057,-0.6551 1.3961,1.39611 -0.8103,3.90522 -2.7228,3.09613 -3.3509,-1.41779 -2.0721,-5.62606 1.7098,-5.62606 3.8936,0 4.9382,6.27217 1.3795,8.28299 -1.5077,0.85192 -13.0272,1.20281 -29.8342,0.90878 z m -13.0888,-30.92693 c 0.4461,-0.76607 0.4433,-0.80104 -0.2059,-2.55234 -0.7891,-2.12895 -1.0615,-2.11696 -1.6971,0.0747 -0.7876,2.71593 0.6638,4.60584 1.903,2.47765 z m -4.101,30.23108 c -0.058,-0.10231 -0.2943,-0.97419 -0.526,-1.9375 -0.854298,-3.55148 -3.052498,-5.85043 -4.643598,-4.85666 -1.0432,0.65148 -1.4626,-0.56213 -0.95,-2.74874 0.4762,-2.03103 1.0219,-2.43206 1.315,-0.96635 0.08,0.39872 0.8308,1.48935 1.669,2.42359 2.528398,2.81832 4.215798,6.20787 3.838498,7.71096 -0.1382,0.55062 -0.4964,0.74168 -0.7028,0.37481 z m 1.3799,-0.12402 c -0.1345,-0.17053 -0.3146,-1.3463 -0.4004,-2.61285 -0.1077,-1.59167 -0.3938,-3.0075 -0.9265,-4.58467 -1.417098,-4.19547 -2.133198,-5.07017 -3.951498,-4.82623 -1.2355,0.16571 -1.2841,-0.18214 -0.2506,-1.7927 1.451,-2.26111 2.996098,-2.91568 2.8093,-1.19029 -0.091,0.84086 0.108798,1.6063 0.987498,3.78272 2.3412,5.79909 3.5303,13.50423 1.7323,11.22407 z m 1.3179,-0.49609 c -0.071,-0.44339 -0.1707,-3.59672 -0.2222,-7.00718 -0.1021,-6.75582 -0.2901,-7.8369 -1.5701,-9.02805 -0.8647,-0.80464 -0.3746,-1.07182 1.9895,-1.08478 2.7937,-0.0153 3.9507,0.80562 2.1735,1.54182 -1.4137,0.58557 -1.9111,4.20896 -1.6278,11.85749 0.164,4.42671 -0.2776,6.63861 -0.7429,3.72054 z m 2.0078,0.64079 c -0.3525,-0.35242 -0.1522,-2.22976 0.5777,-5.41572 0.8127,-3.54698 1.1109,-4.5971 1.7803,-6.26899 0.6661,-1.66337 0.7314,-2.05019 0.582,-3.44538 -0.1948,-1.81863 -0.1896,-1.82154 1.415,-0.79187 2.4159,1.55024 3.139,3.43691 1.3173,3.43691 -1.4409,0 -2.7699,1.07968 -3.0003,2.43738 -0.085,0.50117 -0.3635,1.63676 -0.6187,2.52353 -0.8355,2.90351 -1.2264,4.91592 -1.2264,6.31423 0,1.30577 -0.2967,1.74 -0.8268,1.20993 z m 1.4562,-0.51676 c 0.688,-3.28769 1.7833,-5.56864 3.712,-7.73027 0.7125,-0.79846 1.3706,-1.75121 1.4624,-2.11724 0.2926,-1.16542 0.9721,-0.69627 1.3608,0.93953 0.5233,2.20206 -0.4708,4.53996 -1.3355,3.14085 -0.9717,-1.57238 -3.434,1.19813 -3.9679,4.46481 -0.2266,1.38641 -0.5299,1.98436 -1.0064,1.98436 -0.2708,0 -0.3304,-0.18032 -0.2254,-0.68212 z M 89.594062,155.92703 c -0.057,-0.18187 -0.334,-1.1228 -0.6159,-2.09093 -0.8644,-2.96993 -3.4919,-4.9863 -6.8262,-5.23845 -3.408,-0.25775 -5.7006,1.94729 -4.1171,3.96026 0.8439,1.07282 2.4848,0.83525 2.4848,-0.35975 0,-0.60939 -0.3595,-0.56097 -0.8038,0.10821 -0.4272,0.6433 -1.1805,0.26995 -1.1805,-0.58507 0,-1.41019 2.2801,-1.98214 3.2064,-0.80433 1.9093,2.42717 -2.2873,5.03314 -4.4399,2.75694 -0.8952,-0.94657 -1.1119,-1.6149 -0.8963,-2.76435 0.7697,-4.1026 5.8277,-4.74394 11.3074,-1.43397 1.4072,0.85004 2.1787,1.15085 3.1671,1.2349 1.8126,0.15417 1.7581,0.81439 -0.4126,4.99504 -0.257,0.49492 -0.7488,0.61962 -0.8734,0.22142 z m 28.799698,0.1034 c -0.058,-0.10232 -0.2477,-0.63251 -0.4208,-1.17821 -0.1731,-0.5457 -0.6343,-1.63083 -1.0248,-2.41137 -1.0983,-2.19518 -0.9928,-2.42539 0.8739,-1.90708 1.2856,0.35695 2.6794,-0.007 4.9474,-1.29219 5.8819,-3.33293 12.7052,0.26018 8.9556,4.71617 -1.9485,2.31567 -5.8126,0.53131 -4.6805,-2.16134 0.6715,-1.59691 2.857,-1.56148 3.0417,0.0493 0.1151,1.00472 -0.2631,1.28235 -1.0471,0.76866 -0.7294,-0.47794 -0.8341,-0.24862 -0.2605,0.57036 0.8364,1.19411 2.3424,0.3565 2.3424,-1.30283 0,-6.15178 -9.8467,-2.79398 -11.8017,4.02455 -0.097,0.33697 -0.7537,0.42503 -0.9254,0.12403 z m -24.835498,-7.2289 c -0.075,-0.1219 0.038,-0.70791 0.2529,-1.30224 1.5054,-4.16954 -2.966,-10.13294 -7.5988,-10.13294 -1.957,0 -3.7076,1.05518 -3.7076,2.23463 0,1.42183 1.9475,2.55106 2.7442,1.59116 0.4189,-0.50471 -0.1171,-0.8955 -0.9438,-0.68801 -0.7272,0.18251 -0.7936,-0.76298 -0.08,-1.14469 2.0947,-1.12106 3.3922,1.1299 1.6534,2.86859 -2.6914,2.69053 -6.0428,-1.51658 -3.4737,-4.3603 2.9948,-3.316 7.8789,-1.64755 12.2022,4.1698 1.9243,2.58896 2.1096,2.76462 3.3999,3.22208 1.5937,0.56488 1.5644,0.9299 -0.13,1.61855 -0.7537,0.3063 -1.89,0.91447 -2.5252,1.35151 -1.2051,0.82917 -1.5641,0.94384 -1.7933,0.57295 z m 19.742498,-0.68495 c -0.4558,-0.35917 -1.6824,-1.02416 -2.726,-1.47776 -2.1012,-0.91347 -2.4047,-1.24179 -1.3618,-1.47346 1.8708,-0.4156 2.3574,-0.68981 3.1271,-1.76229 4.3812,-6.10496 7.4985,-7.92184 11.6249,-6.77594 3.4745,0.96509 3.5481,6.44283 0.086,6.44283 -1.8205,0 -3.3392,-2.45429 -2.2146,-3.579 0.7656,-0.76564 2.5867,-0.31649 2.5867,0.63802 0,0.40999 -0.1135,0.48574 -0.5601,0.37366 -0.8267,-0.20747 -1.3627,0.1833 -0.9438,0.68802 0.7966,0.9599 2.7442,-0.16934 2.7442,-1.59116 0,-1.16972 -1.7489,-2.23254 -3.6777,-2.23254 -4.5704,0 -9.0622,5.81973 -7.6448,9.90513 0.574,1.65456 0.2842,1.89031 -1.0406,0.8464 z"
       inkscape:connector-curvature="0"
       style="stroke-width:0.26458147" />
  </g>
</svg>
