<?xml version="1.0" encoding="UTF-8" standalone="no"?>
<!-- Created with Inkscape (http://www.inkscape.org/) -->

<svg
   xmlns:dc="http://purl.org/dc/elements/1.1/"
   xmlns:cc="http://creativecommons.org/ns#"
   xmlns:rdf="http://www.w3.org/1999/02/22-rdf-syntax-ns#"
   xmlns:svg="http://www.w3.org/2000/svg"
   xmlns="http://www.w3.org/2000/svg"
   xmlns:sodipodi="http://sodipodi.sourceforge.net/DTD/sodipodi-0.dtd"
   xmlns:inkscape="http://www.inkscape.org/namespaces/inkscape"
   width="242"
   height="168.51968"
   viewBox="0 0 64.02957 44.587528"
   version="1.1"
   id="svg3735"
   inkscape:version="0.92.0 r15299"
   sodipodi:docname="drawing.svg">
  <defs
     id="defs3729" />
  <sodipodi:namedview
     id="base"
     pagecolor="#ffffff"
     bordercolor="#666666"
     borderopacity="1.0"
     inkscape:pageopacity="0.0"
     inkscape:pageshadow="2"
     inkscape:zoom="7.9195959"
     inkscape:cx="124.25235"
     inkscape:cy="96.452788"
     inkscape:document-units="mm"
     inkscape:current-layer="layer1"
     showgrid="false"
     inkscape:window-width="3840"
     inkscape:window-height="2004"
     inkscape:window-x="-16"
     inkscape:window-y="-16"
     inkscape:window-maximized="1"
     units="px" />
  <metadata
     id="metadata3732">
    <rdf:RDF>
      <cc:Work
         rdf:about="">
        <dc:format>image/svg+xml</dc:format>
        <dc:type
           rdf:resource="http://purl.org/dc/dcmitype/StillImage" />
        <dc:title />
      </cc:Work>
    </rdf:RDF>
  </metadata>
  <g
     inkscape:label="Layer 1"
     inkscape:groupmode="layer"
     id="layer1"
     transform="translate(0,-252.4139)">
    <path
       id="path3699"
       d="m 39.337942,270.98898 c -2.575278,-0.0331 -4.701081,-0.0695 -4.724055,-0.0811 -0.210567,-0.10629 0.109218,-0.5575 0.503402,-0.71026 5.836193,-2.26208 1.413377,-7.97926 -5.146578,-6.65279 -4.374011,0.88446 -5.265266,5.40603 -1.331643,6.75663 1.183659,0.40641 0.939853,0.6718 -0.538016,0.58557 -0.457354,-0.0266 -2.908848,-0.018 -5.447867,0.0193 -5.177528,0.0762 -11.463684,0.0131 -12.6620725,-0.1268 -1.369397,-0.1599 -1.5135,-0.19326 -1.920548,-0.44423 -1.509032,-0.93083 -0.747099,-3.02585 1.100548,-3.02585 2.0109965,0 2.6910965,1.6404 0.9091725,2.19299 -1.0160535,0.31557 -2.1893965,-0.66212 -1.4469785,-1.20665 0.376847,-0.27625 1.014725,-0.0583 0.747471,0.25536 -0.218972,0.25702 0,0.45042 0.399925,0.35686 0.4591055,-0.10683 0.3946585,-0.77803 -0.08566,-0.89229 -1.299419,-0.30908 -2.335414,0.6875 -1.680201,1.61627 0.787032,1.11568 9.4736855,1.13909 10.9166265,0.0292 0.656915,-0.50527 0.958356,-0.52227 1.520148,-0.0857 0.86073,0.66893 6.752815,1.46344 6.752815,0.91056 0,-0.0228 -0.276135,-0.25572 -0.613634,-0.51763 -3.177638,-2.46575 -1.156539,-6.58367 3.536777,-7.20629 1.265971,-0.16793 1.487342,-0.27213 1.540144,-0.72504 0.09731,-0.83536 -0.507815,-2.09005 -1.359986,-2.81981 -0.577044,-0.49419 -0.577528,-0.59129 -0.0059,-1.20054 0.833132,-0.88782 1.300322,-2.44422 1.230129,-4.09815 -0.07385,-1.74145 0.455549,-1.42938 0.574125,0.33841 0.146712,2.18689 0.49707,3.22635 1.318087,3.91001 0.624902,0.52041 0.632615,0.70031 0.04787,1.11578 -1.795218,1.27542 -1.835737,3.2049 -0.07221,3.42901 5.06985,0.6442 7.220587,5.05826 3.594745,7.37757 -0.741677,0.47443 -0.503353,0.52808 2.115114,0.47609 2.485734,-0.0492 3.193801,-0.20437 4.08027,-0.89326 0.561789,-0.43658 0.863237,-0.4196 1.520149,0.0857 1.442781,1.10969 10.12949,1.08639 10.916682,-0.0293 0.655159,-0.92874 -0.380886,-1.92535 -1.680251,-1.61626 -0.480332,0.11426 -0.544781,0.78547 -0.08568,0.89227 0.402156,0.0935 0.618892,-0.0999 0.399917,-0.35685 -0.267246,-0.31369 0.37063,-0.53158 0.747478,-0.25533 0.742367,0.54417 -0.43088,1.5222 -1.447833,1.20684 -1.781819,-0.55265 -1.101829,-2.193 0.909177,-2.193 2.070393,0 2.625862,2.44483 0.733538,3.22861 -0.801703,0.33208 -6.927116,0.46885 -15.864123,0.35425 z m -6.959873,-12.05499 c 0.237209,-0.29862 0.23572,-0.31225 -0.109488,-0.99489 -0.419602,-0.82983 -0.564445,-0.82516 -0.902422,0.0292 -0.418797,1.05863 0.352969,1.79531 1.011906,0.96577 z m -2.180675,11.78377 c -0.03079,-0.0399 -0.156498,-0.37974 -0.279698,-0.75523 -0.454268,-1.38432 -1.623146,-2.28044 -2.4692,-1.89307 -0.554718,0.25394 -0.777726,-0.21911 -0.505154,-1.07142 0.253215,-0.79168 0.543384,-0.94801 0.699238,-0.37668 0.04256,0.15541 0.441772,0.58053 0.887476,0.94468 1.344462,1.09856 2.241727,2.41978 2.041097,3.00566 -0.07348,0.21462 -0.263958,0.28909 -0.37371,0.14609 z m 0.733751,-0.0484 c -0.07152,-0.0665 -0.167287,-0.52478 -0.212912,-1.01846 -0.05728,-0.62042 -0.209397,-1.17229 -0.492661,-1.78706 -0.753529,-1.63534 -1.134311,-1.9763 -2.101178,-1.88122 -0.656967,0.0645 -0.682815,-0.0711 -0.133249,-0.69877 0.771561,-0.88135 1.593157,-1.13648 1.493824,-0.46395 -0.04838,0.32774 0.05786,0.62611 0.525094,1.47445 1.24492,2.26043 1.877212,5.26383 0.921142,4.37502 z m 0.700781,-0.19336 c -0.03777,-0.17283 -0.09077,-1.40198 -0.118159,-2.73133 -0.05428,-2.63334 -0.154254,-3.05475 -0.834884,-3.51903 -0.459796,-0.31365 -0.199192,-0.41779 1.057901,-0.42286 1.485532,-0.006 2.100758,0.31402 1.155747,0.60099 -0.75173,0.22824 -1.016215,1.64061 -0.865572,4.62192 0.08721,1.72549 -0.147609,2.58768 -0.395033,1.45023 z m 1.067635,0.24976 c -0.187441,-0.13737 -0.08092,-0.86913 0.307189,-2.11098 0.432148,-1.38258 0.590709,-1.79191 0.946661,-2.4436 0.354195,-0.64837 0.38892,-0.79914 0.309473,-1.34297 -0.103583,-0.70887 -0.100822,-0.71002 0.752414,-0.30866 1.284643,0.60427 1.669141,1.33968 0.70047,1.33968 -0.766187,0 -1.472877,0.42085 -1.595391,0.95006 -0.04517,0.19536 -0.193287,0.63798 -0.328987,0.98364 -0.444273,1.13175 -0.652134,1.91618 -0.652134,2.46122 0,0.50899 -0.157768,0.67824 -0.439646,0.47162 z m 0.774323,-0.20144 c 0.365841,-1.28148 0.948255,-2.17058 1.973831,-3.01317 0.378868,-0.31122 0.728804,-0.68258 0.777622,-0.82527 0.155586,-0.45428 0.516906,-0.27141 0.723593,0.36621 0.278262,0.85835 -0.250342,1.76964 -0.710142,1.22426 -0.516693,-0.61288 -1.826004,0.46704 -2.109904,1.74035 -0.120495,0.54042 -0.281769,0.77349 -0.535142,0.77349 -0.144003,0 -0.17569,-0.0703 -0.119854,-0.26588 z m -9.490328,-4.3911 c -0.03032,-0.071 -0.177603,-0.43767 -0.3275,-0.81503 -0.459643,-1.15765 -1.856795,-1.9436 -3.629786,-2.04188 -1.812181,-0.10046 -3.031252,0.75902 -2.189238,1.54367 0.448735,0.41817 1.321273,0.32556 1.321273,-0.14023 0,-0.23756 -0.191161,-0.21866 -0.427413,0.0421 -0.227163,0.25075 -0.627725,0.10522 -0.627725,-0.22806 0,-0.54967 1.212429,-0.77262 1.704979,-0.31351 1.015258,0.94608 -1.216255,1.96187 -2.360881,1.07463 -0.476017,-0.36899 -0.591245,-0.62948 -0.476603,-1.07753 0.409283,-1.59914 3.098834,-1.84913 6.012629,-0.55894 0.748272,0.33134 1.158511,0.44859 1.684084,0.48136 0.963838,0.0601 0.934857,0.31743 -0.219395,1.94699 -0.136663,0.19293 -0.398172,0.24153 -0.464424,0.0863 z m 15.314025,0.0403 c -0.03079,-0.0399 -0.131712,-0.24655 -0.223754,-0.45925 -0.09204,-0.21273 -0.337285,-0.63566 -0.54493,-0.93994 -0.584015,-0.85565 -0.527918,-0.94539 0.46469,-0.74336 0.68361,0.13913 1.424757,-0.003 2.630743,-0.50368 3.12766,-1.29913 6.755906,0.10141 4.76208,1.83832 -1.036099,0.90263 -3.090811,0.20709 -2.488822,-0.84247 0.357066,-0.62245 1.519186,-0.60865 1.617401,0.0193 0.0612,0.39162 -0.139905,0.49984 -0.556788,0.29961 -0.387853,-0.1863 -0.443523,-0.0969 -0.138508,0.22232 0.444741,0.46545 1.245549,0.13897 1.245549,-0.50783 0,-2.39789 -5.235914,-1.08907 -6.275469,1.56873 -0.05158,0.13135 -0.400772,0.16567 -0.492076,0.0484 z M 26.091489,263.3557 c -0.03988,-0.0474 0.02019,-0.27594 0.134486,-0.5076 0.800487,-1.62525 -1.57715,-3.94971 -4.040608,-3.94971 -1.040621,0 -1.971491,0.41131 -1.971491,0.87103 0,0.55422 1.03557,0.99437 1.459206,0.62024 0.222752,-0.19674 -0.06227,-0.34908 -0.501859,-0.26819 -0.386683,0.0712 -0.421989,-0.29741 -0.04256,-0.4462 1.113843,-0.43698 1.80378,0.44042 0.879187,1.11814 -1.431132,1.04875 -3.213217,-0.59114 -1.847117,-1.69958 1.592463,-1.29256 4.189553,-0.64221 6.488431,1.62534 1.023236,1.00913 1.121767,1.07761 1.807872,1.25593 0.847443,0.22018 0.831861,0.36247 -0.06913,0.63089 -0.400771,0.1194 -1.00499,0.35646 -1.342753,0.52682 -0.640805,0.32319 -0.831701,0.36788 -0.95358,0.22332 z m 10.497927,-0.26698 c -0.242365,-0.14 -0.894601,-0.39922 -1.449531,-0.57603 -1.117297,-0.35605 -1.278678,-0.48403 -0.724124,-0.57433 0.994789,-0.16199 1.25353,-0.26888 1.662816,-0.68693 2.329666,-2.37964 3.987269,-3.08785 6.181457,-2.64118 1.847537,0.37618 1.886673,2.51133 0.04574,2.51133 -0.968042,0 -1.775596,-0.95665 -1.177598,-1.39504 0.4071,-0.29844 1.375462,-0.12337 1.375462,0.24869 0,0.15981 -0.06036,0.18933 -0.297836,0.14564 -0.43959,-0.0809 -0.724603,0.0715 -0.501857,0.26818 0.423591,0.37417 1.459209,-0.0659 1.459209,-0.62021 0,-0.45594 -0.929959,-0.87022 -1.955589,-0.87022 -2.430276,0 -4.818758,2.26847 -4.065065,3.86092 0.30522,0.64494 0.151121,0.73683 -0.553339,0.32992 z"
       inkscape:connector-curvature="0"
       style="stroke-width:0.12045515" />
    <text
       xml:space="preserve"
       style="font-style:normal;font-variant:normal;font-weight:normal;font-stretch:normal;font-size:8.33085918px;line-height:5.20678759px;font-family:'Sitka Small';-inkscape-font-specification:'Sitka Small';letter-spacing:0px;word-spacing:0px;fill:#000000;fill-opacity:1;stroke:none;stroke-width:0.20827147"
       x="4.7063847"
       y="174.25591"
       id="text3716"
       transform="scale(0.62023381,1.6122952)"><tspan
         sodipodi:role="line"
         id="tspan3714"
         x="4.7063847"
         y="174.25591"
         style="stroke-width:0.20827147">The Fancy Movie Club</tspan></text>
    <text
       xml:space="preserve"
       style="font-style:normal;font-weight:normal;font-size:10.58339977px;line-height:6.61462498px;font-family:sans-serif;letter-spacing:0px;word-spacing:0px;fill:#000000;fill-opacity:1;stroke:none;stroke-width:0.26458499"
       x="2.9733922"
       y="293.42679"
       id="text22"><tspan
         sodipodi:role="line"
         id="tspan20"
         x="2.9733922"
         y="299.77502"
         style="stroke-width:0.26458499" /></text>
    <text
       xml:space="preserve"
       style="font-style:normal;font-variant:normal;font-weight:normal;font-stretch:normal;font-size:16.93343925px;line-height:6.61462498px;font-family:'Sitka Small';-inkscape-font-specification:'Sitka Small';letter-spacing:0px;word-spacing:0px;fill:#000000;fill-opacity:1;stroke:none;stroke-width:0.26458499"
       x="5.2451973"
       y="293.22635"
       id="text26"><tspan
         sodipodi:role="line"
         id="tspan24"
         x="5.2451973"
         y="300.88248"
         style="stroke-width:0.26458499" /></text>
    <text
       xml:space="preserve"
       style="font-style:italic;font-variant:normal;font-weight:normal;font-stretch:normal;font-size:5.0097146px;line-height:3.13107204px;font-family:'Sitka Subheading';-inkscape-font-specification:'Sitka Subheading Italic';letter-spacing:0px;word-spacing:0px;fill:#000000;fill-opacity:1;stroke:none;stroke-width:0.12524286"
       x="11.27409"
       y="175.59645"
       id="text3716-5"
       transform="scale(0.60817484,1.644264)"><tspan
         sodipodi:role="line"
         id="tspan3714-9"
         x="11.27409"
         y="175.59645"
         style="font-style:italic;font-variant:normal;font-weight:normal;font-stretch:normal;font-family:'Sitka Subheading';-inkscape-font-specification:'Sitka Subheading Italic';stroke-width:0.12524286">Select a blue seat and fill in your info.</tspan></text>
    <text
       xml:space="preserve"
       style="font-style:italic;font-variant:normal;font-weight:normal;font-stretch:normal;font-size:5.0097146px;line-height:3.13107204px;font-family:'Sitka Subheading';-inkscape-font-specification:'Sitka Subheading Italic';letter-spacing:0px;word-spacing:0px;fill:#000000;fill-opacity:1;stroke:none;stroke-width:0.12524286"
       x="3.7175941"
       y="179.55914"
       id="text3716-5-1"
       transform="scale(0.60817484,1.644264)"><tspan
         sodipodi:role="line"
         id="tspan3714-9-5"
         x="3.7175941"
         y="179.55914"
         style="font-style:italic;font-variant:normal;font-weight:normal;font-stretch:normal;font-family:'Sitka Subheading';-inkscape-font-specification:'Sitka Subheading Italic';stroke-width:0.12524286">Click 'Reserve Seat' to save your reservation.</tspan></text>
  </g>
</svg>
